<?xml version="1.0" encoding="utf-8"?>
<!-- Generator: Adobe Illustrator 26.0.2, SVG Export Plug-In . SVG Version: 6.00 Build 0)  -->
<svg version="1.1" id="Layer_1" xmlns="http://www.w3.org/2000/svg" xmlns:xlink="http://www.w3.org/1999/xlink" x="0px" y="0px"
	 viewBox="0 0 100 100" style="enable-background:new 0 0 100 100;" xml:space="preserve">
<style type="text/css">
	.st0{fill:#52BE9D;}
</style>
<g>
	<path class="st0" d="M47.4,32.3c0.4,0,0.7-0.3,0.6-0.6c0-0.3-0.2-0.6-0.6-0.6c-0.3,0-0.6,0.2-0.6,0.6C46.9,32.1,47,32.3,47.4,32.3z
		"/>
	<path class="st0" d="M50.4,32.3c0.3,0,0.6-0.3,0.6-0.6c0-0.3-0.2-0.6-0.6-0.6c-0.3,0-0.6,0.2-0.6,0.6C49.8,32.1,50,32.3,50.4,32.3z
		"/>
	<path class="st0" d="M56.2,32c0.3,0,0.6-0.3,0.6-0.7c0-0.3-0.2-0.6-0.6-0.6c-0.3,0-0.6,0.2-0.6,0.6S55.8,32,56.2,32z"/>
	<path class="st0" d="M53.2,32.3c0.4,0,0.7-0.3,0.6-0.6c0-0.3-0.2-0.6-0.6-0.6c-0.3,0-0.6,0.2-0.6,0.6
		C52.6,32.1,52.9,32.3,53.2,32.3z"/>
	<path class="st0" d="M44.6,32c0.3,0,0.6-0.3,0.6-0.6c0-0.2-0.2-0.6-0.6-0.6c-0.3,0-0.6,0.2-0.6,0.6C44,31.6,44.2,32,44.6,32z"/>
	<path class="st0" d="M49,29.5c0.4,0,0.7-0.3,0.6-0.6c0-0.3-0.2-0.6-0.6-0.6c-0.3,0-0.6,0.2-0.6,0.6C48.3,29.1,48.5,29.5,49,29.5z"
		/>
	<path class="st0" d="M46.1,30c0.4,0,0.7-0.3,0.6-0.6c0-0.3-0.2-0.6-0.6-0.6c-0.3,0-0.6,0.2-0.6,0.6C45.5,29.6,45.7,30,46.1,30z"/>
	<path class="st0" d="M54.7,30c0.4,0,0.6-0.3,0.6-0.6s-0.2-0.7-0.6-0.7c-0.3,0-0.6,0.2-0.6,0.6C54,29.6,54.3,30,54.7,30z"/>
	<path class="st0" d="M51.9,29.5c0.4,0,0.6-0.3,0.6-0.6s-0.2-0.6-0.6-0.6c-0.3,0-0.6,0.2-0.6,0.6C51.1,29.1,51.5,29.5,51.9,29.5z"/>
	<path class="st0" d="M47.3,40.9c0,1.6,1.1,2.7,2.7,2.7s2.7-1.1,2.7-2.7c0-1.6-1.1-2.7-2.7-2.7C48.4,38.2,47.3,39.3,47.3,40.9z"/>
	<path class="st0" d="M67.9,30.2c0-4-11.2-5.2-17.9-5.2s-17.9,1.1-17.9,5.2c0,0.1,0,0.1,0,0.2l0,0v37.3c0,3.5,9.5,7.3,18.5,7.3
		c7.8,0,17.4-3.4,17.4-7.3V30.4l0,0C67.9,30.3,67.9,30.3,67.9,30.2z M65.8,46.4H34.2V32.8c3.5,2,10.9,2.5,15.8,2.5
		c5,0,12.1-0.6,15.8-2.5V46.4z M50,27.2c10.6,0,15.5,2.1,15.8,3c-0.2,0.8-5.2,3-15.8,3s-15.5-2.1-15.8-3
		C34.5,29.5,39.4,27.2,50,27.2z M50.5,72.8c-9.1,0-16-3.7-16.3-5V48.7h31.5v19C65.8,69,59.5,72.8,50.5,72.8z"/>
	<path class="st0" d="M55.3,42c0.6,0,1.1-0.5,1.1-1.1v-1.6c0-0.6-0.5-1.1-1.1-1.1s-1.1,0.5-1.1,1.1v1.6C54.1,41.5,54.7,42,55.3,42z"
		/>
	<path class="st0" d="M58.1,42c0.6,0,1.1-0.5,1.1-1.1v-1.6c0-0.6-0.5-1.1-1.1-1.1S57,38.7,57,39.3v1.6C57,41.5,57.5,42,58.1,42z"/>
</g>
</svg>
