<?xml version="1.0" encoding="utf-8"?>
<!-- Generator: Adobe Illustrator 26.0.2, SVG Export Plug-In . SVG Version: 6.00 Build 0)  -->
<svg version="1.1" id="Layer_1" xmlns="http://www.w3.org/2000/svg" xmlns:xlink="http://www.w3.org/1999/xlink" x="0px" y="0px"
	 viewBox="0 0 100 100" style="enable-background:new 0 0 100 100;" xml:space="preserve">
<style type="text/css">
	.st0{fill:#52BE9D;}
</style>
<g>
	<path class="st0" d="M75,27.8c0-1.3-1.1-2.3-2.3-2.3H27.3c-1.3,0-2.3,1.1-2.3,2.3v18.4c0,1.3,1.1,2.3,2.3,2.3h45.4
		c1.3,0,2.3-1.1,2.3-2.3V27.8L75,27.8L75,27.8z M68.4,46.3l0.1-5l0,0l0,0c0-1.3-1.1-2.3-2.3-2.3H33.6c-1.3,0-2.3,1.1-2.3,2.3v5h-4
		c-0.1,0-0.1-0.1-0.1-0.1V27.8c0-0.1,0.1-0.1,0.1-0.1h45.4c0.1,0,0.1,0.1,0.1,0.1v18.4c0,0.1-0.1,0.1-0.1,0.1H68.4z M66,41.2
		c0.1,0,0.1,0.1,0.1,0.1v1.4H33.4v-1.4c0-0.1,0.1-0.1,0.1-0.1H66z M33.5,44.9h32.7v1.4H33.5V44.9z"/>
	<path class="st0" d="M50.7,35.5h-1.5c-0.6,0-1.1,0.5-1.1,1.1c0,0.6,0.5,1.1,1.1,1.1h1.5c0.6,0,1.1-0.5,1.1-1.1
		C51.8,36,51.4,35.5,50.7,35.5z"/>
	<path class="st0" d="M55.8,35.5h-1.5c-0.6,0-1.1,0.5-1.1,1.1c0,0.6,0.5,1.1,1.1,1.1h1.5c0.6,0,1.1-0.5,1.1-1.1
		C56.9,36,56.4,35.5,55.8,35.5z"/>
	<path class="st0" d="M45.8,35.5h-1.5c-0.6,0-1.1,0.5-1.1,1.1c0,0.6,0.5,1.1,1.1,1.1h1.5c0.6,0,1.1-0.5,1.1-1.1
		C46.8,36,46.4,35.5,45.8,35.5z"/>
	<path class="st0" d="M50,49.8c-0.6,0-1.1,0.5-1.1,1.1v22.6c0,0.6,0.5,1.1,1.1,1.1c0.6,0,1.1-0.5,1.1-1.1V50.9
		C51.1,50.3,50.6,49.8,50,49.8z"/>
	<path class="st0" d="M43.6,49.8c-0.6,0-1.1,0.5-1.1,1.1v19.7c0,0.9-0.7,1.7-1.6,1.7c-0.9,0.1-1.7-0.5-1.9-1.5
		c-0.1-0.8,0.4-1.8,1.3-2c0.5-0.1,0.9-0.7,0.7-1.4c-0.1-0.5-0.7-0.9-1.4-0.7c-0.9,0.2-1.8,0.8-2.3,1.7s-0.7,1.8-0.5,2.7
		c0.2,0.9,0.6,1.8,1.5,2.4c0.7,0.5,1.5,0.8,2.4,0.8c0.1,0,0.2,0,0.3,0c0.9-0.1,1.9-0.5,2.5-1.3s1.1-1.7,1.1-2.6V50.9
		C44.6,50.3,44.2,49.8,43.6,49.8z"/>
	<path class="st0" d="M37.2,65.9c0.6-0.7,1.1-1.7,1.1-2.6V50.9c0-0.6-0.5-1.1-1.1-1.1c-0.6,0-1.1,0.5-1.1,1.1v12.2
		c0,0.9-0.7,1.7-1.6,1.7c-0.9,0.1-1.7-0.5-1.9-1.5c-0.1-0.8,0.4-1.8,1.3-2c0.5-0.1,0.9-0.7,0.7-1.4c-0.1-0.5-0.7-0.9-1.4-0.7
		c-0.9,0.2-1.8,0.8-2.3,1.7c-0.5,0.8-0.7,1.8-0.5,2.7c0.2,0.9,0.6,1.8,1.5,2.4c0.7,0.5,1.5,0.8,2.4,0.8c0.1,0,0.2,0,0.3,0
		C35.7,67,36.6,66.5,37.2,65.9z"/>
	<path class="st0" d="M66.7,59.4c-0.5-0.1-1.2,0.2-1.4,0.7c-0.1,0.5,0.2,1.2,0.7,1.4c0.8,0.2,1.5,1.1,1.3,2
		c-0.1,0.8-0.9,1.5-1.9,1.5c-0.8-0.1-1.6-0.8-1.6-1.7l0,0l0,0l-0.1-12.2c0-0.6-0.5-1.1-1.1-1.1c-0.6,0-1.1,0.5-1.1,1.1l0.1,12.2l0,0
		c0,0.9,0.3,1.9,1.1,2.6c0.6,0.7,1.6,1.2,2.5,1.3c0.1,0,0.2,0,0.3,0c0.8,0,1.7-0.3,2.4-0.8c0.7-0.6,1.3-1.5,1.5-2.4
		c0.2-0.9,0-2-0.5-2.7C68.4,60.2,67.6,59.7,66.7,59.4z"/>
	<path class="st0" d="M60.2,66.8c-0.5-0.1-1.2,0.2-1.4,0.7c-0.1,0.5,0.2,1.2,0.7,1.4c0.8,0.2,1.5,1.1,1.3,2
		c-0.1,0.8-0.9,1.5-1.9,1.5c-0.8-0.1-1.6-0.8-1.6-1.7l0,0l0,0l0-19.8c0-0.6-0.5-1.1-1.1-1.1l0,0c-0.6,0-1.1,0.5-1.1,1.1l0.1,19.7
		l0,0c0,0.9,0.3,1.9,1.1,2.6c0.6,0.7,1.6,1.2,2.5,1.3c0.1,0,0.2,0,0.3,0c0.8,0,1.7-0.3,2.4-0.8c0.7-0.6,1.3-1.5,1.5-2.4
		c0.2-0.9,0-2-0.5-2.7C62,67.7,61.2,67,60.2,66.8z"/>
</g>
</svg>
