<svg xmlns="http://www.w3.org/2000/svg" viewBox="0 0 42.4 30.54">
  <g id="Layer_2" data-name="Layer 2">
    <g id="Layer_1-2" data-name="Layer 1">
      <g>
        <g>
          <path d="M3,30.54H39.7a2.69,2.69,0,0,0,2.7-2.7V6.24a3,3,0,0,0-3-3H3a3,3,0,0,0-3,3v21.3A3.08,3.08,0,0,0,3,30.54ZM2.2,6.24a.89.89,0,0,1,.9-.9H39.5a.89.89,0,0,1,.9.9v21.6a.47.47,0,0,1-.5.5H3a.89.89,0,0,1-.9-.9V6.24Z" fill="#52be9d"/>
          <path d="M27,0H15.34c-.15,0-.28.41-.28.9s.13.9.28.9H27.06c.15,0,.28-.41.28-.9S27.19,0,27,0Z" fill="#52be9d"/>
        </g>
        <path d="M21.2,7.83a9.4,9.4,0,1,0,9.39,9.39A9.38,9.38,0,0,0,21.2,7.83Zm0,16.94a7.45,7.45,0,1,1,7.45-7.45A7.44,7.44,0,0,1,21.24,24.77Z" fill="#52be9d"/>
      </g>
    </g>
  </g>
</svg>
