<?xml version="1.0" encoding="utf-8"?>
<!-- Generator: Adobe Illustrator 25.4.1, SVG Export Plug-In . SVG Version: 6.00 Build 0)  -->
<svg version="1.1" id="Layer_1" xmlns="http://www.w3.org/2000/svg" xmlns:xlink="http://www.w3.org/1999/xlink" x="0px" y="0px"
	 viewBox="0 0 60 60" style="enable-background:new 0 0 60 60;" xml:space="preserve">
<style type="text/css">
	.st0{fill:#52BE9D;}
</style>
<g>
	<path class="st0" d="M11.8,42.1h36.7c1.5,0,2.7-1.2,2.7-2.7V17.8c0-1.7-1.4-3-3-3H11.8c-1.7,0-3,1.4-3,3v21.3
		C8.8,40.7,10.2,42.1,11.8,42.1z M11,17.8c0-0.4,0.3-0.9,0.9-0.9h36.4c0.4,0,0.9,0.3,0.9,0.9v21.6c0,0.3-0.2,0.5-0.5,0.5H11.8
		c-0.4,0-0.9-0.3-0.9-0.9V17.8z"/>
	<path class="st0" d="M52.3,43H7.7c-0.6,0-1.1,0.5-1.1,1.1s0.5,1.1,1.1,1.1h44.7c0.6,0,1.1-0.5,1.1-1.1S52.9,43,52.3,43z"/>
</g>
</svg>
