<?xml version="1.0" encoding="utf-8"?>
<!-- Generator: Adobe Illustrator 25.4.1, SVG Export Plug-In . SVG Version: 6.00 Build 0)  -->
<svg version="1.1" id="Layer_1" xmlns="http://www.w3.org/2000/svg" xmlns:xlink="http://www.w3.org/1999/xlink" x="0px" y="0px"
	 viewBox="0 0 60 60" style="enable-background:new 0 0 60 60;" xml:space="preserve">
<style type="text/css">
	.st0{fill:#52BE9D;}
</style>
<g>
	<path class="st0" d="M52.5,5H7.7C6.2,5,5.1,6.2,5.1,7.6v44.8c0,1.4,1.2,2.6,2.6,2.6h44.8c1.4,0,2.6-1.2,2.6-2.6V7.6
		C55.1,6.2,53.9,5,52.5,5z M53.4,52.4c0,0.5-0.4,0.9-0.9,0.9H7.7c-0.5,0-0.9-0.4-0.9-0.9v-7h46.6V52.4z M53.4,43.7H6.8V7.6
		c0-0.5,0.4-0.9,0.9-0.9h44.8c0.5,0,0.9,0.4,0.9,0.9V43.7z"/>
	<path class="st0" d="M13.3,52.4c1.7,0,3.1-1.4,3.1-3.1c0-1.7-1.4-3.1-3.1-3.1c-1.7,0-3.1,1.4-3.1,3.1C10.2,51,11.6,52.4,13.3,52.4z
		 M13.3,48c0.8,0,1.4,0.6,1.4,1.4c0,0.8-0.6,1.4-1.4,1.4c-0.8,0-1.4-0.6-1.4-1.4C11.9,48.6,12.5,48,13.3,48z"/>
	<path class="st0" d="M24,52.4c1.7,0,3.1-1.4,3.1-3.1c0-1.7-1.4-3.1-3.1-3.1c-1.7,0-3.1,1.4-3.1,3.1C20.9,51,22.3,52.4,24,52.4z
		 M24,48c0.8,0,1.4,0.6,1.4,1.4c0,0.8-0.6,1.4-1.4,1.4c-0.8,0-1.4-0.6-1.4-1.4C22.6,48.6,23.2,48,24,48z"/>
	<path class="st0" d="M36.1,52.4c1.7,0,3.1-1.4,3.1-3.1c0-1.7-1.4-3.1-3.1-3.1c-1.7,0-3.1,1.4-3.1,3.1C33,51,34.4,52.4,36.1,52.4z
		 M36.1,48c0.8,0,1.4,0.6,1.4,1.4c0,0.8-0.6,1.4-1.4,1.4c-0.8,0-1.4-0.6-1.4-1.4C34.7,48.6,35.3,48,36.1,48z"/>
	<path class="st0" d="M46.8,52.4c1.7,0,3.1-1.4,3.1-3.1c0-1.7-1.4-3.1-3.1-3.1c-1.7,0-3.1,1.4-3.1,3.1C43.7,51,45.1,52.4,46.8,52.4z
		 M46.8,48c0.8,0,1.4,0.6,1.4,1.4c0,0.8-0.6,1.4-1.4,1.4c-0.8,0-1.4-0.6-1.4-1.4C45.5,48.6,46.1,48,46.8,48z"/>
	<path class="st0" d="M19.4,9.3c-3.9,0-7.1,3.2-7.1,7.1c0,3.9,3.2,7.1,7.1,7.1c3.9,0,7.1-3.2,7.1-7.1C26.6,12.5,23.4,9.3,19.4,9.3z
		 M19.4,21.6c-2.9,0-5.2-2.3-5.2-5.2c0-2.9,2.3-5.2,5.2-5.2c2.9,0,5.2,2.3,5.2,5.2C24.7,19.3,22.3,21.6,19.4,21.6z"/>
	<path class="st0" d="M40.6,23.5c3.9,0,7.1-3.2,7.1-7.1c0-3.9-3.2-7.1-7.1-7.1s-7.1,3.2-7.1,7.1C33.5,20.3,36.7,23.5,40.6,23.5z
		 M40.6,11.2c2.9,0,5.2,2.3,5.2,5.2c0,2.9-2.3,5.2-5.2,5.2c-2.9,0-5.2-2.3-5.2-5.2C35.4,13.5,37.8,11.2,40.6,11.2z"/>
	<path class="st0" d="M19.4,25.8c-3.9,0-7.1,3.2-7.1,7.1s3.2,7.1,7.1,7.1c3.9,0,7.1-3.2,7.1-7.1S23.4,25.8,19.4,25.8z M19.4,38.1
		c-2.9,0-5.2-2.3-5.2-5.2c0-2.9,2.3-5.2,5.2-5.2c2.9,0,5.2,2.3,5.2,5.2C24.7,35.8,22.3,38.1,19.4,38.1z"/>
	<path class="st0" d="M40.6,25.8c-3.9,0-7.1,3.2-7.1,7.1s3.2,7.1,7.1,7.1s7.1-3.2,7.1-7.1S44.6,25.8,40.6,25.8z M40.6,38.1
		c-2.9,0-5.2-2.3-5.2-5.2c0-2.9,2.3-5.2,5.2-5.2s5.2,2.3,5.2,5.2C45.9,35.8,43.5,38.1,40.6,38.1z"/>
</g>
</svg>
