<?xml version="1.0" encoding="utf-8"?>
<!-- Generator: Adobe Illustrator 25.4.1, SVG Export Plug-In . SVG Version: 6.00 Build 0)  -->
<svg version="1.1" id="Layer_1" xmlns="http://www.w3.org/2000/svg" xmlns:xlink="http://www.w3.org/1999/xlink" x="0px" y="0px"
	 viewBox="0 0 60 60" style="enable-background:new 0 0 60 60;" xml:space="preserve">
<style type="text/css">
	.st0{fill:#52BE9D;}
</style>
<g>
	<path class="st0" d="M50.4,4H9.8c-1.6,0-3,1.3-3,3v46c0,1.6,1.3,3,3,3h40.7c1.6,0,3-1.3,3-3V7C53.4,5.3,52.1,4,50.4,4z M51.4,53
		c0,0.6-0.5,1-1,1H9.8c-0.6,0-1-0.5-1-1v-4h42.7V53z M51.4,47H8.7V18.1H22c0.7,2.6,4,4.5,8.1,4.5s7.4-1.9,8.1-4.5h13.2V47z
		 M24.1,18.1h12c-0.8,1.5-3.2,2.6-6,2.6C27.3,20.7,24.9,19.6,24.1,18.1z M51.4,16.1H8.7V7c0-0.6,0.5-1,1-1h40.7c0.6,0,1,0.5,1,1
		V16.1z"/>
	<path class="st0" d="M14.4,8.2c-1.5,0-2.7,1.2-2.7,2.7c0,1.5,1.2,2.7,2.7,2.7c1.5,0,2.7-1.2,2.7-2.7C17.1,9.4,15.9,8.2,14.4,8.2z
		 M14.4,12.1c-0.7,0-1.2-0.6-1.2-1.2c0-0.7,0.6-1.2,1.2-1.2c0.7,0,1.2,0.6,1.2,1.2C15.6,11.6,15.1,12.1,14.4,12.1z"/>
	<path class="st0" d="M18.6,14.1h5.6V7.7h-5.6V14.1z M20.1,9.2h2.7v3.4h-2.7V9.2z"/>
	<path class="st0" d="M25.5,14.1h5.6V7.7h-5.6V14.1z M27,9.2h2.7v3.4H27V9.2z"/>
</g>
</svg>
