<?xml version="1.0" encoding="utf-8"?>
<!-- Generator: Adobe Illustrator 25.4.1, SVG Export Plug-In . SVG Version: 6.00 Build 0)  -->
<svg version="1.1" id="Layer_1" xmlns="http://www.w3.org/2000/svg" xmlns:xlink="http://www.w3.org/1999/xlink" x="0px" y="0px"
	 viewBox="0 0 60 60" style="enable-background:new 0 0 60 60;" xml:space="preserve">
<style type="text/css">
	.st0{fill:#52BE9D;}
</style>
<g>
	<g>
		<path class="st0" d="M30.1,51.7c-3.3,0-6.5-1-9.2-2.9c-2.5-1.8-4.4-4.2-5.6-7h-3.1c-0.4,0-0.6-0.3-0.6-0.6V30.4
			c0-0.4,0.3-0.6,0.6-0.6h3.1c1.1-2.8,3.1-5.2,5.6-7c2.7-1.9,5.9-2.9,9.2-2.9C38.9,19.9,46,27,46,35.8C46,44.6,38.9,51.7,30.1,51.7z
			 M12.8,40.5h2.9c0.3,0,0.5,0.2,0.6,0.4c2.1,5.7,7.6,9.5,13.7,9.5c8.1,0,14.6-6.6,14.6-14.6c0-8.1-6.6-14.7-14.6-14.7
			c-6.1,0-11.6,3.8-13.7,9.5c-0.1,0.3-0.3,0.4-0.6,0.4h-2.9V40.5L12.8,40.5z"/>
		<path class="st0" d="M30.1,51.9c-3.3,0-6.5-1-9.2-2.9c-2.5-1.8-4.4-4.2-5.6-7h-3c-0.4,0-0.8-0.3-0.8-0.8V30.4
			c0-0.4,0.3-0.8,0.8-0.8h3c1.2-2.8,3.1-5.2,5.6-7c2.7-1.9,5.9-2.9,9.2-2.9c8.9,0,16.1,7.2,16.1,16.1c0,4.3-1.7,8.3-4.7,11.4
			C38.4,50.2,34.4,51.9,30.1,51.9z M12.2,29.9c-0.3,0-0.5,0.2-0.5,0.5v10.7c0,0.3,0.2,0.5,0.5,0.5h3.2l0,0.1c1.1,2.8,3.1,5.2,5.5,7
			c2.7,1.9,5.8,2.9,9.1,2.9c4.2,0,8.2-1.6,11.2-4.6c3-3,4.6-7,4.6-11.2c0-8.7-7.1-15.8-15.8-15.8c-3.3,0-6.4,1-9.1,2.9
			c-2.5,1.8-4.4,4.2-5.5,7l0,0.1H12.2z M30.1,50.6c-6.1,0-11.7-3.9-13.8-9.6c-0.1-0.2-0.3-0.3-0.5-0.3h-3.1V31h3.1
			c0.2,0,0.4-0.1,0.5-0.3C18.4,24.9,24,21,30.1,21c8.1,0,14.8,6.6,14.8,14.8C44.9,43.9,38.2,50.6,30.1,50.6z M13,40.4h2.8
			c0.3,0,0.6,0.2,0.7,0.5c2.1,5.6,7.6,9.4,13.6,9.4c8,0,14.5-6.5,14.5-14.5c0-8-6.5-14.5-14.5-14.5c-6,0-11.5,3.8-13.6,9.4
			c-0.1,0.3-0.4,0.5-0.7,0.5H13V40.4z"/>
	</g>
	<g>
		<path class="st0" d="M30.1,48.7c-7.1,0-12.8-5.8-12.8-12.8c0-7.1,5.8-12.9,12.8-12.9c7.1,0,12.8,5.8,12.8,12.9
			C42.9,42.9,37.2,48.7,30.1,48.7z M30.1,24.2c-6.4,0-11.6,5.2-11.6,11.6s5.2,11.6,11.6,11.6s11.6-5.2,11.6-11.6
			S36.5,24.2,30.1,24.2z"/>
		<path class="st0" d="M30.1,48.8c-7.2,0-13-5.8-13-13c0-7.2,5.8-13,13-13c7.2,0,13,5.8,13,13C43.1,43,37.2,48.8,30.1,48.8z
			 M30.1,23.1c-7,0-12.7,5.7-12.7,12.7c0,7,5.7,12.7,12.7,12.7c7,0,12.7-5.7,12.7-12.7C42.8,28.8,37.1,23.1,30.1,23.1z M30.1,47.5
			c-6.4,0-11.7-5.2-11.7-11.7s5.2-11.7,11.7-11.7c6.4,0,11.7,5.2,11.7,11.7S36.5,47.5,30.1,47.5z M30.1,24.4
			c-6.3,0-11.4,5.1-11.4,11.4c0,6.3,5.1,11.4,11.4,11.4c6.3,0,11.4-5.1,11.4-11.4C41.5,29.5,36.4,24.4,30.1,24.4z"/>
	</g>
	<path class="st0" d="M14.8,34c-0.4,0-0.6-0.3-0.6-0.6c0-0.4,0.3-0.6,0.6-0.6c0.4,0,0.6,0.3,0.6,0.6v0C15.4,33.7,15.1,34,14.8,34z"
		/>
	<path class="st0" d="M14.8,36.4c-0.4,0-0.6-0.3-0.6-0.6s0.3-0.6,0.6-0.6c0.4,0,0.6,0.3,0.6,0.6v0C15.4,36.1,15.1,36.4,14.8,36.4z"
		/>
	<path class="st0" d="M14.8,38.8c-0.4,0-0.6-0.3-0.6-0.6c0-0.4,0.3-0.6,0.6-0.6c0.4,0,0.6,0.3,0.6,0.6v0
		C15.4,38.6,15.1,38.8,14.8,38.8z"/>
	<path class="st0" d="M49.7,55.9H10.5c-1.5,0-2.8-1.3-2.8-2.8V6.9c0-1.5,1.3-2.8,2.8-2.8h39.3c1.5,0,2.8,1.3,2.8,2.8v46.1
		C52.5,54.6,51.3,55.9,49.7,55.9z M10.5,5.9c-0.6,0-1.1,0.5-1.1,1.1v46.1c0,0.6,0.5,1.1,1.1,1.1h39.3c0.6,0,1.1-0.5,1.1-1.1V6.9
		c0-0.6-0.5-1.1-1.1-1.1H10.5z"/>
	<rect x="8.5" y="15.8" class="st0" width="43.1" height="1.7"/>
	<path class="st0" d="M15.8,14.4c-1.9,0-3.4-1.5-3.4-3.4c0-1.9,1.5-3.4,3.4-3.4c1.9,0,3.4,1.5,3.4,3.4
		C19.2,12.8,17.7,14.4,15.8,14.4z M15.8,8.9c-1.2,0-2.1,0.9-2.1,2.1c0,1.2,0.9,2.1,2.1,2.1s2.1-0.9,2.1-2.1
		C17.9,9.8,17,8.9,15.8,8.9z"/>
	<path class="st0" d="M24.3,14.4c-1.9,0-3.4-1.5-3.4-3.4c0-1.9,1.5-3.4,3.4-3.4c1.9,0,3.4,1.5,3.4,3.4
		C27.7,12.8,26.2,14.4,24.3,14.4z M24.3,8.9c-1.2,0-2.1,0.9-2.1,2.1c0,1.2,0.9,2.1,2.1,2.1c1.2,0,2.1-0.9,2.1-2.1
		C26.4,9.8,25.5,8.9,24.3,8.9z"/>
	<path class="st0" d="M25.9,41.8c-0.2,0-0.3-0.1-0.5-0.2c-0.3-0.2-0.3-0.7,0-0.9c0.4-0.4,0.6-3.3,0-5.4c-0.7-2.4,0.8-5.5,0.8-5.6
		c0.2-0.3,0.5-0.5,0.9-0.3c0.3,0.2,0.5,0.5,0.3,0.9c0,0-1.3,2.8-0.8,4.7c0.6,2.1,0.6,5.7-0.3,6.6C26.3,41.7,26.1,41.8,25.9,41.8z"/>
	<path class="st0" d="M29.6,41.8c-0.2,0-0.3-0.1-0.5-0.2c-0.3-0.3-0.3-0.7,0-0.9c0.4-0.4,0.6-3.3,0-5.4c-0.7-2.4,0.8-5.5,0.8-5.6
		c0.2-0.3,0.5-0.5,0.9-0.3c0.3,0.2,0.5,0.5,0.3,0.9c0,0-1.3,2.8-0.8,4.7c0.6,2.1,0.6,5.7-0.3,6.6C29.9,41.7,29.8,41.8,29.6,41.8z"/>
	<g>
		<path class="st0" d="M30.1,19.5c-3.4,0-6.6,1-9.4,3c-2.5,1.8-4.4,4.2-5.6,7h-2.9c-0.5,0-1,0.4-1,1v10.7c0,0.5,0.4,1,1,1h2.9
			c1.2,2.8,3.1,5.2,5.6,7c2.7,1.9,6,3,9.4,3c4.3,0,8.4-1.7,11.5-4.8c3.1-3.1,4.8-7.2,4.8-11.5C46.3,26.8,39,19.5,30.1,19.5z
			 M30.1,50.1c-5.9,0-11.3-3.7-13.4-9.3c-0.1-0.4-0.5-0.6-0.9-0.6h-2.6v-8.8h2.6c0.4,0,0.8-0.3,0.9-0.6c2.1-5.6,7.5-9.3,13.4-9.3
			c7.9,0,14.3,6.4,14.3,14.3C44.4,43.7,38,50.1,30.1,50.1z"/>
		<path class="st0" d="M30.1,22.6c-7.3,0-13.2,5.9-13.2,13.2c0,7.3,5.9,13.2,13.2,13.2c7.3,0,13.2-5.9,13.2-13.2
			C43.3,28.5,37.4,22.6,30.1,22.6z M30.1,47c-6.2,0-11.2-5-11.2-11.2c0-6.2,5-11.2,11.2-11.2c6.2,0,11.2,5,11.2,11.2
			C41.3,42,36.3,47,30.1,47z"/>
		<path class="st0" d="M14.8,32.5c-0.5,0-0.8,0.4-0.8,0.8c0,0.5,0.4,0.8,0.8,0.8c0.5,0,0.8-0.4,0.8-0.9
			C15.6,32.9,15.2,32.5,14.8,32.5z"/>
		<path class="st0" d="M14.8,34.9c-0.5,0-0.8,0.4-0.8,0.8s0.4,0.8,0.8,0.8c0.5,0,0.8-0.4,0.8-0.9C15.6,35.3,15.2,34.9,14.8,34.9z"/>
		<path class="st0" d="M14.8,37.4c-0.5,0-0.8,0.4-0.8,0.8s0.4,0.8,0.8,0.8c0.5,0,0.8-0.4,0.8-0.9C15.6,37.7,15.2,37.4,14.8,37.4z"/>
		<path class="st0" d="M49.7,3.9H10.5c-1.6,0-3,1.3-3,3v46.1c0,1.6,1.3,3,3,3h39.3c1.6,0,3-1.3,3-3V6.9C52.7,5.3,51.4,3.9,49.7,3.9z
			 M10.5,6.1h39.3c0.5,0,0.9,0.4,0.9,0.9v8.7h-41V6.9C9.6,6.4,10,6.1,10.5,6.1z M49.7,53.9H10.5c-0.5,0-0.9-0.4-0.9-0.9V17.7h41
			v35.3C50.6,53.5,50.2,53.9,49.7,53.9z"/>
		<path class="st0" d="M15.8,14.6c2,0,3.6-1.6,3.6-3.6c0-2-1.6-3.6-3.6-3.6c-2,0-3.6,1.6-3.6,3.6C12.2,13,13.8,14.6,15.8,14.6z
			 M15.8,9.1c1,0,1.9,0.8,1.9,1.9c0,1-0.8,1.9-1.9,1.9S13.9,12,13.9,11C13.9,9.9,14.8,9.1,15.8,9.1z"/>
		<path class="st0" d="M24.3,14.6c2,0,3.6-1.6,3.6-3.6c0-2-1.6-3.6-3.6-3.6c-2,0-3.6,1.6-3.6,3.6C20.7,13,22.4,14.6,24.3,14.6z
			 M24.3,9.1c1,0,1.9,0.8,1.9,1.9c0,1-0.8,1.9-1.9,1.9c-1,0-1.9-0.8-1.9-1.9C22.4,9.9,23.3,9.1,24.3,9.1z"/>
		<path class="st0" d="M27.3,29.2c-0.1-0.1-0.2-0.1-0.4-0.1c-0.3,0-0.6,0.2-0.8,0.5c-0.1,0.1-1.6,3.3-0.9,5.8c0.6,2.2,0.3,4.9,0,5.2
			c-0.3,0.3-0.3,0.9,0,1.2c0.2,0.2,0.4,0.2,0.6,0.2c0.2,0,0.4-0.1,0.6-0.2c1-1,1-4.7,0.4-6.8c-0.5-1.8,0.7-4.4,0.8-4.5
			C27.9,29.9,27.7,29.4,27.3,29.2z"/>
		<path class="st0" d="M30.9,29.2c-0.1-0.1-0.2-0.1-0.4-0.1c-0.3,0-0.6,0.2-0.8,0.5c-0.1,0.1-1.6,3.3-0.9,5.8c0.6,2.2,0.3,4.9,0,5.2
			c-0.3,0.3-0.3,0.9,0,1.2c0.2,0.2,0.4,0.2,0.6,0.2c0.2,0,0.4-0.1,0.6-0.2c1-1,1-4.7,0.4-6.8c-0.5-1.8,0.7-4.5,0.8-4.5
			C31.5,29.9,31.4,29.4,30.9,29.2z"/>
		<path class="st0" d="M34.6,29.2c-0.1-0.1-0.2-0.1-0.4-0.1c-0.3,0-0.6,0.2-0.8,0.5c-0.1,0.1-1.6,3.3-0.9,5.8c0.6,2.2,0.3,4.9,0,5.2
			c-0.2,0.2-0.2,0.4-0.2,0.6c0,0.2,0.1,0.4,0.2,0.6c0.2,0.2,0.4,0.2,0.6,0.2c0.2,0,0.4-0.1,0.6-0.2c1-1,1-4.7,0.4-6.8
			c-0.5-1.8,0.7-4.5,0.8-4.5C35.2,29.9,35,29.4,34.6,29.2z"/>
	</g>
	<path class="st0" d="M33.3,41.8c-0.2,0-0.3-0.1-0.5-0.2c-0.3-0.2-0.3-0.7,0-0.9c0.4-0.4,0.6-3.3,0-5.4c-0.7-2.4,0.8-5.5,0.8-5.6
		c0.2-0.3,0.5-0.5,0.9-0.3c0.3,0.2,0.5,0.5,0.3,0.9c0,0-1.3,2.8-0.8,4.7c0.6,2.1,0.6,5.7-0.3,6.6C33.6,41.7,33.5,41.8,33.3,41.8z"/>
</g>
</svg>
