<?xml version="1.0" encoding="utf-8"?>
<!-- Generator: Adobe Illustrator 25.4.1, SVG Export Plug-In . SVG Version: 6.00 Build 0)  -->
<svg version="1.1" id="Layer_1" xmlns="http://www.w3.org/2000/svg" xmlns:xlink="http://www.w3.org/1999/xlink" x="0px" y="0px"
	 viewBox="0 0 60 60" style="enable-background:new 0 0 60 60;" xml:space="preserve">
<style type="text/css">
	.st0{fill:#52BE9D;}
</style>
<g id="Layer_1_00000142162815264285823650000007362827540316059793_">
</g>
<g>
	<path class="st0" d="M30,6.6C17,6.6,6.4,17.2,6.4,30.2S17,53.8,30,53.8s23.6-10.6,23.6-23.6S43,6.6,30,6.6z M30,52.1
		c-12.1,0-21.9-9.8-21.9-21.9C8.1,18.1,17.9,8.3,30,8.3s21.9,9.8,21.9,21.9C51.9,42.3,42.1,52.1,30,52.1z"/>
	<path class="st0" d="M30,10.2c-11,0-20,9-20,20s9,20,20,20s20-9,20-20S41,10.2,30,10.2z M30,11.9c8.4,0,15.8,5.8,17.8,13.9h-10
		c0-0.2,0-0.4,0-0.7c0-4.3-3.5-7.8-7.8-7.8s-7.8,3.5-7.8,7.8c0,0.2,0,0.4,0,0.7h-10C14.2,17.7,21.6,11.9,30,11.9z M36.2,25.1
		c0,3.4-2.8,6.2-6.2,6.2s-6.2-2.8-6.2-6.2c0-3.4,2.8-6.2,6.2-6.2S36.2,21.7,36.2,25.1z M30,48.5c-10.1,0-18.4-8.2-18.4-18.4
		c0-0.9,0.1-1.8,0.2-2.8h10.6c1,3.3,4,5.5,7.5,5.5c3.4,0,6.5-2.3,7.5-5.5H48c0.2,1,0.2,1.9,0.2,2.8C48.4,40.3,40.1,48.5,30,48.5z"/>
	<path class="st0" d="M30,37.8c-1.7,0-3,1.4-3,3v3.7c0,1.7,1.4,3,3,3c1.7,0,3-1.4,3-3v-3.7C33,39.2,31.7,37.8,30,37.8z M31.4,44.5
		c0,0.8-0.6,1.4-1.4,1.4s-1.4-0.6-1.4-1.4v-3.7c0-0.8,0.6-1.4,1.4-1.4s1.4,0.6,1.4,1.4V44.5z"/>
</g>
</svg>
