<?xml version="1.0" encoding="utf-8"?>
<!-- Generator: Adobe Illustrator 25.4.1, SVG Export Plug-In . SVG Version: 6.00 Build 0)  -->
<svg version="1.1" id="Layer_1" xmlns="http://www.w3.org/2000/svg" xmlns:xlink="http://www.w3.org/1999/xlink" x="0px" y="0px"
	 viewBox="0 0 60 60" style="enable-background:new 0 0 60 60;" xml:space="preserve">
<style type="text/css">
	.st0{fill:#52BE9D;}
</style>
<g>
	<path class="st0" d="M49.2,33.2c0,1-0.8,1.9-1.9,1.9s-1.9-0.8-1.9-1.9s0.8-1.9,1.9-1.9S49.2,32.2,49.2,33.2z"/>
	<g>
		<path class="st0" d="M51.8,48.1H8.2c-1.5,0-2.8-1.3-2.8-2.8V14.7c0-1.5,1.2-2.8,2.8-2.8h43.5c1.5,0,2.8,1.3,2.8,2.8v30.5
			C54.5,46.8,53.3,48.1,51.8,48.1z M8.2,14.1c-0.4,0-0.6,0.3-0.6,0.7v30.5c0,0.4,0.3,0.7,0.6,0.7h43.5c0.4,0,0.6-0.3,0.6-0.7V14.7
			c0-0.4-0.3-0.7-0.6-0.7H8.2z"/>
		<path class="st0" d="M39.5,42.8H11.9c-1.5,0-2.8-1.3-2.8-2.8V19.1c0-1.5,1.2-2.8,2.8-2.8h27.6c1.5,0,2.8,1.3,2.8,2.8V40
			C42.3,41.5,41,42.8,39.5,42.8z M11.9,18.5c-0.4,0-0.6,0.3-0.6,0.7V40c0,0.4,0.3,0.7,0.6,0.7h27.6c0.4,0,0.6-0.3,0.6-0.7V19.1
			c0-0.4-0.3-0.7-0.6-0.7H11.9z"/>
		<path class="st0" d="M22,35c-0.3,0-0.6-0.1-0.8-0.4c-0.4-0.4-0.3-1.1,0.1-1.5c0.2-0.4,0.5-2.7-0.1-4.4c-0.8-2.4,0.8-5.4,1-5.7
			c0.3-0.5,0.9-0.7,1.5-0.4c0.5,0.3,0.7,0.9,0.4,1.5c-0.4,0.7-1.3,2.7-0.8,3.9c0.7,2,0.8,5.7-0.5,6.8C22.5,34.9,22.2,35,22,35z"/>
		<path class="st0" d="M26,35c-0.3,0-0.6-0.1-0.8-0.4c-0.4-0.4-0.3-1.1,0.1-1.5c0.2-0.4,0.5-2.7-0.1-4.4c-0.8-2.4,0.8-5.4,1-5.7
			c0.3-0.5,0.9-0.7,1.5-0.4c0.5,0.3,0.7,0.9,0.4,1.5c-0.4,0.7-1.3,2.7-0.8,3.9c0.7,2,0.8,5.7-0.5,6.8C26.5,34.9,26.2,35,26,35z"/>
		<path class="st0" d="M30.1,35c-0.3,0-0.6-0.1-0.8-0.4c-0.4-0.4-0.3-1.1,0.1-1.5c0.2-0.4,0.5-2.7-0.1-4.4c-0.8-2.4,0.8-5.4,1-5.7
			c0.3-0.5,0.9-0.7,1.5-0.4c0.5,0.3,0.7,0.9,0.4,1.5c-0.4,0.7-1.3,2.7-0.8,3.9c0.7,2,0.8,5.7-0.5,6.8C30.5,34.9,30.3,35,30.1,35z"/>
		<path class="st0" d="M46.2,27h-1.8c-0.6,0-1.1-0.5-1.1-1.1s0.5-1.1,1.1-1.1h1.8c0.6,0,1.1,0.5,1.1,1.1S46.8,27,46.2,27z"/>
		<path class="st0" d="M50.3,27h-1.8c-0.6,0-1.1-0.5-1.1-1.1s0.5-1.1,1.1-1.1h1.8c0.6,0,1.1,0.5,1.1,1.1S50.9,27,50.3,27z"/>
		<path class="st0" d="M46.2,29.6h-1.8c-0.6,0-1.1-0.5-1.1-1.1s0.5-1.1,1.1-1.1h1.8c0.6,0,1.1,0.5,1.1,1.1S46.8,29.6,46.2,29.6z"/>
		<path class="st0" d="M50.3,29.6h-1.8c-0.6,0-1.1-0.5-1.1-1.1s0.5-1.1,1.1-1.1h1.8c0.6,0,1.1,0.5,1.1,1.1S50.9,29.6,50.3,29.6z"/>
		<path class="st0" d="M46.2,24.2h-1.8c-0.6,0-1.1-0.5-1.1-1.1s0.5-1.1,1.1-1.1h1.8c0.6,0,1.1,0.5,1.1,1.1S46.8,24.2,46.2,24.2z"/>
		<path class="st0" d="M50.3,24.2h-1.8c-0.6,0-1.1-0.5-1.1-1.1s0.5-1.1,1.1-1.1h1.8c0.6,0,1.1,0.5,1.1,1.1S50.9,24.2,50.3,24.2z"/>
		<path class="st0" d="M49.5,41.6h-4.2c-0.6,0-1-0.5-1-1v-2c0-0.6,0.5-1,1-1h4.2c0.6,0,1,0.5,1,1v2C50.5,41.1,50,41.6,49.5,41.6z"/>
	</g>
</g>
</svg>
