<?xml version="1.0" encoding="utf-8"?>
<!-- Generator: Adobe Illustrator 25.4.1, SVG Export Plug-In . SVG Version: 6.00 Build 0)  -->
<svg version="1.1" id="Layer_1" xmlns="http://www.w3.org/2000/svg" xmlns:xlink="http://www.w3.org/1999/xlink" x="0px" y="0px"
	 viewBox="0 0 60 60" style="enable-background:new 0 0 60 60;" xml:space="preserve">
<style type="text/css">
	.st0{fill:#52BE9D;}
</style>
<g>
	<path class="st0" d="M38.5,8.9h-17c-1.7,0-3,1.5-3,3.3v35.6c0,1.8,1.4,3.3,3,3.3h17.3c1.5,0,2.7-1.3,2.7-2.9v-36
		C41.5,10.4,40.1,8.9,38.5,8.9z M39.4,48.3c0,0.4-0.3,0.7-0.5,0.7H21.5c-0.5,0-0.9-0.5-0.9-1.2V12.2c0-0.6,0.4-1.2,0.9-1.2h17
		c0.5,0,0.9,0.5,0.9,1.2V48.3z"/>
	<path class="st0" d="M32,12.9H28c-0.6,0-1.1,0.5-1.1,1.1S27.5,15,28,15H32c0.6,0,1.1-0.5,1.1-1.1S32.5,12.9,32,12.9z"/>
</g>
</svg>
