<svg xmlns="http://www.w3.org/2000/svg" viewBox="0 0 46.7 45.38">
  <g id="Layer_2" data-name="Layer 2">
    <g id="Layer_1-2" data-name="Layer 1">
      <g>
        <g>
          <path d="M43.6,0H3A3,3,0,0,0,0,3V33.77a3,3,0,0,0,3,3H5.88a1.85,1.85,0,0,1-.09-1.32,2.07,2.07,0,0,1,.34-.68H3a1,1,0,0,1-1-1V24.05H44.7v9.72h-.1a1,1,0,0,1-1,1H41.08a2.37,2.37,0,0,1-.15.7,2.4,2.4,0,0,1,.11,1.3H43.7a3,3,0,0,0,3-3V3A3.1,3.1,0,0,0,43.6,0Zm1,22.05H1.9v-8H15.2c.7,2.6,4,4.5,8.1,4.5s7.4-1.9,8.1-4.5H44.6Zm-27.3-8h12c-.8,1.5-3.2,2.6-6,2.6S18.1,15.6,17.3,14.1Zm27.3-2H1.9V3a1,1,0,0,1,1-1H43.6a1,1,0,0,1,1,1Z" fill="#52be9d"/>
          <path d="M7.6,4.2a2.7,2.7,0,1,0,2.7,2.7A2.69,2.69,0,0,0,7.6,4.2Zm0,3.9A1.2,1.2,0,1,1,8.8,6.9,1.16,1.16,0,0,1,7.6,8.1Z" fill="#52be9d"/>
          <path d="M11.8,10.1h5.6V3.7H11.8Zm1.5-4.9H16V8.6H13.3Z" fill="#52be9d"/>
          <path d="M18.7,10.1h5.6V3.7H18.7Zm1.5-4.9h2.7V8.6H20.2Z" fill="#52be9d"/>
        </g>
        <polygon points="42.21 45.38 4.49 45.38 4.49 23.45 6.49 23.45 6.49 43.38 40.21 43.38 40.21 23.45 42.21 23.45 42.21 45.38" fill="#52be9d"/>
      </g>
    </g>
  </g>
</svg>
