<?xml version="1.0" encoding="utf-8"?>
<!-- Generator: Adobe Illustrator 25.4.1, SVG Export Plug-In . SVG Version: 6.00 Build 0)  -->
<svg version="1.1" id="Layer_1" xmlns="http://www.w3.org/2000/svg" xmlns:xlink="http://www.w3.org/1999/xlink" x="0px" y="0px"
	 viewBox="0 0 60 60" style="enable-background:new 0 0 60 60;" xml:space="preserve">
<style type="text/css">
	.st0{fill:#52BE9D;}
</style>
<g>
	<path class="st0" d="M36.7,18.2L36.7,18.2c-0.2-1.4-1.4-2.5-2.9-2.5c-1.6,0-2.9,1.3-2.9,2.9c0,1.6,1.3,2.9,2.9,2.9
		c1.6,0,2.9-1.3,2.9-2.9l0-0.2L36.7,18.2z M33.8,17.6c0.5,0,0.9,0.4,1,0.8v0.1c0,0.5-0.4,1-1,1c-0.5,0-1-0.4-1-1
		S33.3,17.6,33.8,17.6z"/>
	<path class="st0" d="M16.9,49.9h26.3h0c1.4,0,2.5-1.2,2.5-2.6V31.6c0-1.4-1.2-2.6-2.6-2.6l-0.2,0l-26.1,0c-1.4,0-2.6,1.1-2.6,2.6
		v15.6C14.4,48.7,15.5,49.8,16.9,49.9z M43.8,31.7v15.6c0,0.3-0.3,0.6-0.6,0.6H16.9c-0.2,0-0.3-0.1-0.4-0.2
		c-0.1-0.1-0.2-0.3-0.2-0.4V31.6c0-0.3,0.3-0.6,0.6-0.6h26.3c0.2,0,0.3,0.1,0.4,0.2C43.8,31.3,43.8,31.5,43.8,31.7z"/>
	<path class="st0" d="M52.2,14.2c0-1.4-1.2-2.6-2.6-2.6h-0.2V7.2c0-1.6-1.3-2.9-2.9-2.9H13.4c-1.6,0-2.9,1.3-2.9,2.9v4.5
		c-1.4,0-2.5,1.2-2.5,2.6v38.9c0,1.4,1.1,2.6,2.6,2.6h39.1c1.4,0,2.6-1.1,2.6-2.6l0-7.5l0-0.1V14.2z M40.6,10.4c0,0.5,0.4,1,1,1h2.5
		l0.2,0.3h-9.4l0.2-0.3h2.5c0.5,0,1-0.4,1-1c0-0.5-0.4-1-1-1h-3.1c-0.3,0-0.7,0.2-0.8,0.5l-1,1.7h-5.2l-1-1.7
		c-0.2-0.3-0.5-0.5-0.8-0.5h-3.1c-0.5,0-1,0.4-1,1c0,0.5,0.4,1,1,1h2.5l0.2,0.3h-9.4l0.2-0.3h2.5c0.5,0,1-0.4,1-1c0-0.5-0.4-1-1-1
		h-3.1c-0.3,0-0.7,0.2-0.8,0.5l-1,1.7h-1V7.2c0-0.5,0.4-0.8,0.8-0.8h33.1c0.5,0,0.8,0.4,0.8,0.8v4.5h-0.8l-1-1.7
		c-0.2-0.3-0.5-0.5-0.8-0.5h-3.1C41.1,9.4,40.6,9.9,40.6,10.4z M10,25.6h40.3l0,19.4c0,0,0,0.1,0,0.1v8.1c0,0.3-0.3,0.6-0.6,0.6
		H10.6c-0.3,0-0.6-0.3-0.6-0.6V25.6z M9.9,14.7c0-0.6,0.5-1.1,1.1-1.1h38c0.6,0,1.1,0.5,1.1,1.1v8.9H9.9V14.7z"/>
	<path class="st0" d="M30.1,18.2L30.1,18.2c-0.2-1.4-1.4-2.5-2.9-2.5c-1.6,0-2.9,1.3-2.9,2.9c0,1.6,1.3,2.9,2.9,2.9
		c1.6,0,2.9-1.3,2.9-2.9l0-0.2L30.1,18.2z M27.2,17.6c0.5,0,0.9,0.4,1,0.8v0.1c0,0.5-0.4,1-1,1c-0.5,0-1-0.4-1-1
		S26.7,17.6,27.2,17.6z"/>
	<path class="st0" d="M48.6,18.2L48.6,18.2c-0.2-1.6-1.6-2.9-3.3-2.9c-1.8,0-3.3,1.5-3.3,3.3c0,1.8,1.5,3.3,3.3,3.3
		c1.8,0,3.3-1.5,3.3-3.3l0-0.2L48.6,18.2z M45.4,17.3c0.7,0,1.3,0.5,1.3,1.2v0.1c0,0.7-0.6,1.3-1.3,1.3c-0.7,0-1.3-0.6-1.3-1.3
		C44.1,17.9,44.6,17.3,45.4,17.3z"/>
	<path class="st0" d="M13.9,15.7c-1.6,0-2.9,1.3-2.9,2.9c0,1.6,1.3,2.9,2.9,2.9c1.6,0,2.9-1.3,2.9-2.9C16.9,17,15.5,15.7,13.9,15.7z
		 M13.9,17.6c0.5,0,1,0.4,1,1s-0.4,1-1,1c-0.5,0-1-0.4-1-1S13.4,17.6,13.9,17.6z"/>
	<path class="st0" d="M20.6,15.7c-1.6,0-2.9,1.3-2.9,2.9c0,1.6,1.3,2.9,2.9,2.9c1.6,0,2.9-1.3,2.9-2.9C23.5,17,22.2,15.7,20.6,15.7z
		 M20.6,17.6c0.5,0,1,0.4,1,1s-0.4,1-1,1s-1-0.4-1-1S20,17.6,20.6,17.6z"/>
</g>
</svg>
