<?xml version="1.0" encoding="utf-8"?>
<!-- Generator: Adobe Illustrator 25.4.1, SVG Export Plug-In . SVG Version: 6.00 Build 0)  -->
<svg version="1.1" id="Layer_1" xmlns="http://www.w3.org/2000/svg" xmlns:xlink="http://www.w3.org/1999/xlink" x="0px" y="0px"
	 viewBox="0 0 60 60" style="enable-background:new 0 0 60 60;" xml:space="preserve">
<style type="text/css">
	.st0{fill:#52BE9D;}
</style>
<g>
	<path class="st0" d="M42.6,4.1H17.6c-1.6,0-2.9,1.3-2.9,2.9v46c0,1.6,1.3,2.9,2.9,2.9h24.9c1.6,0,2.9-1.3,2.9-2.9V7
		C45.4,5.4,44.1,4.1,42.6,4.1z M17.6,5.9h24.9c0.6,0,1.1,0.5,1.1,1.1v15.3H16.5V7C16.5,6.4,17,5.9,17.6,5.9z M42.6,54.1H17.6
		c-0.6,0-1.1-0.5-1.1-1.1V24.1h27.1V53C43.7,53.6,43.2,54.1,42.6,54.1z"/>
	<path class="st0" d="M20.1,19.4c0.5,0,0.9-0.4,0.9-0.9v-7.5c0-0.5-0.4-0.9-0.9-0.9s-0.9,0.4-0.9,0.9v7.5
		C19.2,19,19.6,19.4,20.1,19.4z"/>
	<path class="st0" d="M20.1,26.8c-0.5,0-0.9,0.4-0.9,0.9v7.5c0,0.5,0.4,0.9,0.9,0.9s0.9-0.4,0.9-0.9v-7.5
		C21,27.2,20.6,26.8,20.1,26.8z"/>
</g>
</svg>
