<svg xmlns="http://www.w3.org/2000/svg" viewBox="0 0 35.9 50">
  <g id="Layer_2" data-name="Layer 2">
    <g id="Layer_1-2" data-name="Layer 1">
      <g>
        <path d="M13.13,34.88c.66,0,1.15-.49,1-1a1,1,0,1,0-2,0C12.31,34.55,12.47,34.88,13.13,34.88Z" fill="#52be9d"/>
        <path d="M18.05,34.88a1.05,1.05,0,0,0,1-1,1,1,0,1,0-2,0A.86.86,0,0,0,18.05,34.88Z" fill="#52be9d"/>
        <path d="M27.56,34.39a1.09,1.09,0,0,0,1-1.15,1,1,0,0,0-2,0C26.58,33.9,26.9,34.39,27.56,34.39Z" fill="#52be9d"/>
        <path d="M22.64,34.88c.66,0,1.15-.49,1-1a1,1,0,1,0-1,1Z" fill="#52be9d"/>
        <path d="M8.54,34.39a1,1,0,0,0,0-2,1,1,0,0,0-1,1A1.05,1.05,0,0,0,8.54,34.39Z" fill="#52be9d"/>
        <path d="M15.75,30.29c.66,0,1.15-.49,1-1a1,1,0,0,0-2,0C14.61,29.63,14.93,30.29,15.75,30.29Z" fill="#52be9d"/>
        <path d="M11,31.11c.65,0,1.15-.49,1-1a1,1,0,0,0-2,0A1.05,1.05,0,0,0,11,31.11Z" fill="#52be9d"/>
        <path d="M25.1,31.11a.94.94,0,0,0,1-1,1.07,1.07,0,0,0-1-1.14.94.94,0,0,0-1,1A1,1,0,0,0,25.1,31.11Z" fill="#52be9d"/>
        <path d="M20.51,30.29a1,1,0,1,0-1-1C19.2,29.63,19.85,30.29,20.51,30.29Z" fill="#52be9d"/>
        <path d="M15.2,15.9a2.57,2.57,0,0,0,2.7,2.7,2.57,2.57,0,0,0,2.7-2.7,2.57,2.57,0,0,0-2.7-2.7A2.57,2.57,0,0,0,15.2,15.9Z" fill="#52be9d"/>
        <path d="M35.8,5.2c0-4-11.2-5.2-17.9-5.2S0,1.1,0,5.2v.2H0V42.7C0,46.2,9.5,50,18.5,50c7.8,0,17.4-3.4,17.4-7.3V5.4h0C35.8,5.3,35.8,5.3,35.8,5.2ZM33.7,21.4H2.1V7.8c3.5,2,10.9,2.5,15.8,2.5S30,9.7,33.7,7.8ZM17.9,2.2c10.6,0,15.5,2.1,15.8,3-.2.8-5.2,3-15.8,3S2.4,6.1,2.1,5.2C2.4,4.5,7.3,2.2,17.9,2.2Zm.5,45.6c-9.1,0-16-3.7-16.3-5V23.7H33.6v19C33.7,44,27.4,47.8,18.4,47.8Z" fill="#52be9d"/>
      </g>
    </g>
  </g>
</svg>
