<?xml version="1.0" encoding="utf-8"?>
<!-- Generator: Adobe Illustrator 25.4.1, SVG Export Plug-In . SVG Version: 6.00 Build 0)  -->
<svg version="1.1" id="Layer_1" xmlns="http://www.w3.org/2000/svg" xmlns:xlink="http://www.w3.org/1999/xlink" x="0px" y="0px"
	 viewBox="0 0 60 60" style="enable-background:new 0 0 60 60;" xml:space="preserve">
<style type="text/css">
	.st0{fill:#52BE9D;}
</style>
<g>
	<path class="st0" d="M32.4,7.5h-4.8c-0.6,0-1.1,0.5-1.1,1.1s0.5,1.1,1.1,1.1h4.8c0.6,0,1.1-0.5,1.1-1.1S33,7.5,32.4,7.5z"/>
	<path class="st0" d="M45.1,3.9H15.3c-1.9,0-3.5,1.6-3.5,3.5v44.5c0,1.9,1.6,3.5,3.5,3.5h29.4c1.9,0,3.5-1.6,3.5-3.5V7
		C48.2,5.3,46.8,3.9,45.1,3.9z M46,51.9c0,0.7-0.6,1.3-1.3,1.3H15.3c-0.7,0-1.3-0.6-1.3-1.3V7.4c0-0.7,0.6-1.3,1.3-1.3h29.8
		C45.5,6.1,46,6.4,46,7V51.9z"/>
</g>
</svg>
