<?xml version="1.0" encoding="utf-8"?>
<!-- Generator: Adobe Illustrator 25.4.1, SVG Export Plug-In . SVG Version: 6.00 Build 0)  -->
<svg version="1.1" id="Layer_1" xmlns="http://www.w3.org/2000/svg" xmlns:xlink="http://www.w3.org/1999/xlink" x="0px" y="0px"
	 viewBox="0 0 60 60" style="enable-background:new 0 0 60 60;" xml:space="preserve">
<style type="text/css">
	.st0{fill:#52BE9D;}
</style>
<path class="st0" d="M52.9,10.9H7.1c-1.9,0-3.5,1.6-3.5,3.5v26.8c0,1.9,1.6,3.5,3.5,3.5h18.3v2.2H15.1c-0.6,0-1.1,0.5-1.1,1.1
	s0.5,1.1,1.1,1.1h10.4h9.2h10.4c0.6,0,1.1-0.5,1.1-1.1s-0.5-1.1-1.1-1.1H34.6v-2.2h18.7c1.7,0,3.1-1.4,3.1-3.1V14.4
	C56.4,12.5,54.8,10.9,52.9,10.9z M32.4,46.9h-4.9v-2.2h4.9V46.9z M54.3,41.6c0,0.5-0.4,0.9-0.9,0.9H7.1c-0.8,0-1.4-0.6-1.4-1.4V14.4
	c0-0.8,0.6-1.4,1.4-1.4h45.8c0.8,0,1.4,0.6,1.4,1.4V41.6z"/>
</svg>
