<svg xmlns="http://www.w3.org/2000/svg" viewBox="0 0 47.2 47.2">
  <g id="Layer_2" data-name="Layer 2">
    <g id="Layer_1-2" data-name="Layer 1">
      <g>
        <path d="M23.6,0A23.6,23.6,0,1,0,47.2,23.6,23.64,23.64,0,0,0,23.6,0Zm0,45.5A21.9,21.9,0,1,1,45.5,23.6,21.89,21.89,0,0,1,23.6,45.5Z" fill="#52be9d"/>
        <path d="M20.77,27V25.9a4.63,4.63,0,0,1,.59-2.39,7.56,7.56,0,0,1,2.14-2.16,9,9,0,0,0,2-1.75A2.53,2.53,0,0,0,26,18.1a1.63,1.63,0,0,0-.69-1.42,3.32,3.32,0,0,0-1.92-.49,11,11,0,0,0-4.9,1.41L16.9,14.46a13.7,13.7,0,0,1,6.78-1.79,7.19,7.19,0,0,1,4.69,1.42,4.61,4.61,0,0,1,1.74,3.78,5,5,0,0,1-.72,2.72,10.33,10.33,0,0,1-2.72,2.58,8.4,8.4,0,0,0-1.74,1.54,2.45,2.45,0,0,0-.37,1.39V27Zm-.46,4.9A2.41,2.41,0,0,1,21,30a2.6,2.6,0,0,1,1.87-.61,2.54,2.54,0,0,1,1.84.63,2.77,2.77,0,0,1,0,3.58,2.45,2.45,0,0,1-1.83.65A2.59,2.59,0,0,1,21,33.66,2.4,2.4,0,0,1,20.31,31.86Z" fill="#52be9d"/>
      </g>
    </g>
  </g>
</svg>
