<?xml version="1.0" encoding="utf-8"?>
<!-- Generator: Adobe Illustrator 25.4.1, SVG Export Plug-In . SVG Version: 6.00 Build 0)  -->
<svg version="1.1" id="Layer_1" xmlns="http://www.w3.org/2000/svg" xmlns:xlink="http://www.w3.org/1999/xlink" x="0px" y="0px"
	 viewBox="0 0 60 60" style="enable-background:new 0 0 60 60;" xml:space="preserve">
<style type="text/css">
	.st0{fill:#52BE9D;}
</style>
<g>
	<path class="st0" d="M40.6,50.4h-6.3V47c1.9-1.2,3-3.2,3-5.4V30.1c0-2.5-1.4-4.4-4-5.5V5c0-0.4-0.3-0.7-0.7-0.7h-4
		c-0.4,0-0.7,0.3-0.7,0.7v19.6c-2.6,1.1-4,3-4,5.5v11.5c0,2.2,1.1,4.2,3,5.4v3.4h-7.3c-1.5,0-2.7,1.2-2.7,2.7s1.2,2.7,2.7,2.7h21.2
		c1.5,0,2.7-1.2,2.7-2.7S42,50.4,40.6,50.4z M25.2,41.6V30.1c0-2,1.2-3.5,3.5-4.3c0.3-0.1,0.5-0.4,0.5-0.7V5.7h2.5v19.4
		c0,0.3,0.2,0.6,0.5,0.7c2.3,0.8,3.5,2.3,3.5,4.3v11.5c0,1.8-1,3.4-2.6,4.3c-0.2,0.1-0.4,0.4-0.4,0.6v3.8h-4.5v-3.8
		c0-0.3-0.1-0.5-0.4-0.6C26.2,45.1,25.2,43.4,25.2,41.6z M40.6,54.3H19.4c-0.7,0-1.2-0.5-1.2-1.2s0.5-1.2,1.2-1.2h8.1h6h7.1
		c0.7,0,1.2,0.5,1.2,1.2S41.2,54.3,40.6,54.3z"/>
	<path class="st0" d="M30.5,14.4c0.4,0,0.7-0.3,0.7-0.7V9.8c0-0.4-0.3-0.7-0.7-0.7s-0.7,0.3-0.7,0.7v3.8
		C29.8,14.1,30.1,14.4,30.5,14.4z"/>
</g>
</svg>
