<?xml version="1.0" encoding="utf-8"?>
<!-- Generator: Adobe Illustrator 25.4.1, SVG Export Plug-In . SVG Version: 6.00 Build 0)  -->
<svg version="1.1" id="Layer_1" xmlns="http://www.w3.org/2000/svg" xmlns:xlink="http://www.w3.org/1999/xlink" x="0px" y="0px"
	 viewBox="0 0 60 60" style="enable-background:new 0 0 60 60;" xml:space="preserve">
<style type="text/css">
	.st0{fill:#52BE9D;}
</style>
<g id="Layer_1_00000103237692849958940150000008230215230895727549_">
	<g id="Layer_1_1_">
	</g>
</g>
<g id="Icons_1_">
	<path class="st0" d="M14.1,56.8c-1.2,0-1.8-0.7-1.8-1.4s-0.1-3.4,2.3-4.1c0.6-0.2,1.3-0.3,2.3-0.3h6l2.2-5.2
		c0.1-0.3,0.4-0.6,0.7-0.8l8.4-21.9c-0.1,0-0.2-0.1-0.2-0.2c-0.1-0.2-0.1-0.5,0-0.7l1.9-4.6c0,0-2.5-1.7-2.8-1.9s-0.8-0.8-0.5-1.4
		c0.3-0.6,1.8-4.3,1.8-4.3s2.8-6.6,3-7.1s0.8-0.5,1.2-0.4s0,0,0,0s3.5,1.5,4,1.7s0.7,0.6,0.4,1.2s-1.2,2.8-1.2,2.8l2.8,0.4l0.4-1
		c0.3-0.7,1.2-1.4,2.4-0.9s1.4,1.5,1,2.5c0,0-4.5,10.1-4.6,10.4s-0.6,0.5-1.1,0.3s-1.6-0.6-1.6-0.6l-1.9,4.8
		c-0.1,0.2-0.3,0.4-0.5,0.5c-0.1,0-0.2,0.1-0.3,0.1l-8.6,22c0,0.3,0,0.6-0.1,0.9L27.9,52c-0.1,0.3-0.3,0.6-0.6,0.7
		c0.1,0.3,0.2,0.7,0.2,1c0,1.7-1.4,3.1-3.1,3.1C24.1,56.8,15.3,56.8,14.1,56.8z M24.3,52.4c-0.7,0-1.4,0.6-1.4,1.4s0.6,1.4,1.4,1.4
		s1.4-0.6,1.4-1.4S25.1,52.4,24.3,52.4z M18,53c-1.3,0-2.2-0.1-2.8,0.1c-0.9,0.3-1,1.2-1,2l7.3-0.1c-0.2-0.4-0.3-0.8-0.3-1.2
		c0-0.3,0-0.6,0.1-0.9C21.3,52.9,19.1,53,18,53z M26.3,51.3l1.7-4.2l0,0c0,0,0,0,0-0.1l-1.2-0.5l-1.7,4.1
		C25.5,50.8,25.8,51,26.3,51.3L26.3,51.3z M28.5,45.4l8.2-21.1L35.8,24l-8.1,21L28.5,45.4z M37.8,22.8l1.6-3.9l-1.9-0.7L36,22.1
		L37.8,22.8z M42.5,18.2L44,15l-4.4-1.7l-1.5,3.2 M36.4,15.9l1.8-4l2.7-6.3l-2.4-1l-2.7,6.2c0,0-1.2,2.7-1.4,3.1
		c-0.2,0.5,0.2,0.8,0.2,0.8L36.4,15.9z M42.8,12.6l0.9-2.2L40.9,10l-0.7,1.6L42.8,12.6z"/>
</g>
</svg>
