<?xml version="1.0" encoding="utf-8"?>
<!-- Generator: Adobe Illustrator 25.4.1, SVG Export Plug-In . SVG Version: 6.00 Build 0)  -->
<svg version="1.1" id="Layer_1" xmlns="http://www.w3.org/2000/svg" xmlns:xlink="http://www.w3.org/1999/xlink" x="0px" y="0px"
	 viewBox="0 0 60 60" style="enable-background:new 0 0 60 60;" xml:space="preserve">
<style type="text/css">
	.st0{fill:#52BE9D;}
</style>
<g>
	<path class="st0" d="M34,7.8h-7.2c-1.7,0-3.1,1.4-3.1,3.1c0,1.7,1.4,3.1,3.1,3.1h0H34c1.7,0,3-1.4,3-3.1C37.1,9.2,35.7,7.9,34,7.8z
		 M34,12.4h-7.2c-0.8,0-1.5-0.7-1.5-1.5c0-0.8,0.7-1.4,1.5-1.5H34c0.8,0,1.5,0.7,1.5,1.5C35.5,11.7,34.8,12.4,34,12.4z"/>
	<path class="st0" d="M49.9,3.9H10.6c-1.7,0-3,1.3-3,3v46.1c0,1.7,1.3,3,3,3h39.3c1.7,0,3-1.3,3-3V6.9C52.9,5.3,51.6,3.9,49.9,3.9z
		 M50.8,53.1c0,0.5-0.4,0.9-0.9,0.9H10.6c-0.5,0-0.9-0.4-0.9-0.9V17.8h41V53.1z M50.8,15.6h-41V6.9c0-0.5,0.4-0.9,0.9-0.9h39.3
		c0.5,0,0.9,0.4,0.9,0.9V15.6z"/>
	<path class="st0" d="M14.4,51.1h31.8c1.7,0,3-1.3,3-3v-25c0-1.7-1.3-3-3-3H14.4c-1.7,0-3,1.3-3,3v25C11.4,49.7,12.7,51.1,14.4,51.1
		z M13.5,23.1c0-0.5,0.4-0.9,0.9-0.9h31.8c0.5,0,0.9,0.4,0.9,0.9v25c0,0.5-0.4,0.9-0.9,0.9H14.4c-0.5,0-0.9-0.4-0.9-0.9V23.1z"/>
	<path class="st0" d="M15.2,7.5c-1.9,0-3.5,1.6-3.5,3.5c0,1.9,1.6,3.5,3.5,3.5s3.5-1.6,3.5-3.5C18.7,9,17.1,7.5,15.2,7.5z
		 M15.2,12.9c-1.1,0-1.9-0.9-1.9-1.9c0-1.1,0.9-1.9,1.9-1.9c1.1,0,1.9,0.9,1.9,1.9C17.1,12.1,16.3,12.9,15.2,12.9z"/>
	<path class="st0" d="M45.6,7.5c-1.9,0-3.5,1.6-3.5,3.5c0,1.9,1.6,3.5,3.5,3.5c1.9,0,3.5-1.6,3.5-3.5C49.2,9,47.6,7.5,45.6,7.5z
		 M45.6,12.9c-1.1,0-1.9-0.9-1.9-1.9c0-1.1,0.9-1.9,1.9-1.9c1.1,0,1.9,0.9,1.9,1.9C47.6,12.1,46.7,12.9,45.6,12.9z"/>
	<path class="st0" d="M26.4,30.9c-0.6-0.3-1.3-0.1-1.7,0.5c-0.2,0.4-2.1,3.7-1.1,6.4c0.7,1.9,0.4,4.5,0.2,4.9
		c-0.5,0.4-0.6,1.2-0.1,1.7c0.2,0.3,0.6,0.4,0.9,0.4c0.3,0,0.6-0.1,0.8-0.3c1.5-1.2,1.4-5.4,0.6-7.6c-0.5-1.4,0.5-3.6,0.9-4.4
		C27.2,32,27,31.3,26.4,30.9z"/>
	<path class="st0" d="M31,30.9c-0.6-0.3-1.3-0.1-1.7,0.5c-0.2,0.4-2.1,3.7-1.1,6.4c0.7,1.9,0.4,4.5,0.2,4.9
		c-0.5,0.4-0.6,1.2-0.1,1.7c0.2,0.3,0.6,0.4,0.9,0.4c0.3,0,0.6-0.1,0.8-0.3c1.5-1.2,1.4-5.4,0.6-7.6c-0.5-1.4,0.5-3.6,0.9-4.4
		C31.8,32,31.6,31.3,31,30.9z"/>
	<path class="st0" d="M35.6,30.9c-0.6-0.3-1.3-0.1-1.7,0.5c-0.2,0.4-2.1,3.7-1.1,6.4c0.7,1.9,0.4,4.5,0.2,4.9
		c-0.5,0.4-0.6,1.2-0.1,1.7c0.2,0.3,0.6,0.4,0.9,0.4c0.3,0,0.6-0.1,0.8-0.3c1.5-1.2,1.4-5.4,0.6-7.6c-0.5-1.4,0.5-3.6,0.9-4.4
		C36.4,32,36.2,31.3,35.6,30.9z"/>
	<path class="st0" d="M21.7,27.7h17.4c0.6,0,1.1-0.5,1.1-1.1s-0.5-1.1-1.1-1.1H21.7c-0.6,0-1.1,0.5-1.1,1.1S21.1,27.7,21.7,27.7z"/>
</g>
</svg>
