<?xml version="1.0" encoding="utf-8"?>
<!-- Generator: Adobe Illustrator 25.4.1, SVG Export Plug-In . SVG Version: 6.00 Build 0)  -->
<svg version="1.1" id="Layer_1" xmlns="http://www.w3.org/2000/svg" xmlns:xlink="http://www.w3.org/1999/xlink" x="0px" y="0px"
	 viewBox="0 0 60 60" style="enable-background:new 0 0 60 60;" xml:space="preserve">
<style type="text/css">
	.st0{fill:#52BE9D;}
</style>
<g>
	<path class="st0" d="M30.1,19.7c-3.3,0-6.5,1-9.2,2.9c-2.5,1.8-4.4,4.2-5.6,7h-3c-0.4,0-0.8,0.3-0.8,0.8v10.7
		c0,0.4,0.3,0.8,0.8,0.8h3c1.2,2.8,3.1,5.2,5.6,7c2.7,1.9,5.9,2.9,9.2,2.9c4.3,0,8.3-1.7,11.3-4.7c3-3,4.7-7.1,4.7-11.4
		C46.1,26.9,38.9,19.7,30.1,19.7z M30.1,50.3c-6,0-11.5-3.8-13.6-9.4c-0.1-0.3-0.4-0.5-0.7-0.5H13v-9.2h2.8c0.3,0,0.6-0.2,0.7-0.5
		c2.1-5.6,7.6-9.4,13.6-9.4c8,0,14.5,6.5,14.5,14.5C44.6,43.8,38.1,50.3,30.1,50.3z"/>
	<path class="st0" d="M30.1,22.8c-7.2,0-13,5.8-13,13c0,1.5,0.3,2.9,0.7,4.2c0,0,0,0,0,0l0,0c1.8,5.1,6.6,8.7,12.2,8.7
		c7.2,0,13-5.8,13-13C43.1,28.6,37.2,22.8,30.1,22.8z M30.1,47.2c-4.7,0-8.7-2.8-10.5-6.8c1.1-1.5,4.4-5.7,7.8-4.5
		c1.6,0.6,2.4,1.4,3.2,2.1c1.3,1.2,2.5,2.3,5.5,0.9c4-1.8,4.6-1.9,5.3-1.4C40.5,43.1,35.8,47.2,30.1,47.2z M35.4,37.4
		c-2,0.9-2.5,0.5-3.6-0.6C30.9,36,29.9,35,28,34.3c-3.9-1.4-7.3,1.9-9,4.1c-0.2-0.8-0.3-1.7-0.3-2.6c0-6.3,5.1-11.4,11.4-11.4
		c6.3,0,11.4,5.1,11.4,11.4C40.2,35.3,38.7,35.9,35.4,37.4z"/>
	<path class="st0" d="M14.8,32.7c-0.4,0-0.6,0.3-0.6,0.6c0,0.4,0.3,0.6,0.6,0.6c0.4,0,0.6-0.3,0.6-0.6v0
		C15.4,33,15.1,32.7,14.8,32.7z"/>
	<path class="st0" d="M14.8,35.1c-0.4,0-0.6,0.3-0.6,0.6c0,0.4,0.3,0.6,0.6,0.6c0.4,0,0.6-0.3,0.6-0.6v0
		C15.4,35.4,15.1,35.1,14.8,35.1z"/>
	<path class="st0" d="M14.8,37.6c-0.4,0-0.6,0.3-0.6,0.6c0,0.4,0.3,0.6,0.6,0.6c0.4,0,0.6-0.3,0.6-0.6v0
		C15.4,37.8,15.1,37.6,14.8,37.6z"/>
	<path class="st0" d="M49.7,4.1H10.5c-1.5,0-2.8,1.3-2.8,2.8v46.1c0,1.5,1.3,2.8,2.8,2.8h39.3c1.5,0,2.8-1.3,2.8-2.8V6.9
		C52.5,5.4,51.3,4.1,49.7,4.1z M10.5,5.9h39.3c0.6,0,1.1,0.5,1.1,1.1v8.9H9.4V6.9C9.4,6.3,9.9,5.9,10.5,5.9z M49.7,54.1H10.5
		c-0.6,0-1.1-0.5-1.1-1.1V17.5h41.4v35.5C50.8,53.7,50.3,54.1,49.7,54.1z"/>
	<path class="st0" d="M15.8,14.4c1.9,0,3.4-1.5,3.4-3.4c0-1.9-1.5-3.4-3.4-3.4c-1.9,0-3.4,1.5-3.4,3.4C12.4,12.8,14,14.4,15.8,14.4z
		 M15.8,8.9c1.2,0,2.1,0.9,2.1,2.1c0,1.2-0.9,2.1-2.1,2.1c-1.2,0-2.1-0.9-2.1-2.1C13.7,9.8,14.7,8.9,15.8,8.9z"/>
	<path class="st0" d="M24.3,14.4c1.9,0,3.4-1.5,3.4-3.4c0-1.9-1.5-3.4-3.4-3.4s-3.4,1.5-3.4,3.4C20.9,12.8,22.5,14.4,24.3,14.4z
		 M24.3,8.9c1.2,0,2.1,0.9,2.1,2.1c0,1.2-0.9,2.1-2.1,2.1s-2.1-0.9-2.1-2.1C22.2,9.8,23.2,8.9,24.3,8.9z"/>
</g>
</svg>
